<svg xmlns="http://www.w3.org/2000/svg" width="77.88" height="25.17"><path fill="#585858" d="M38.37 18.56l36.31-6.11 3.2-10-11.67 1.96-2.07 3.81-24.88 4.39-4.5 4.28 3.61 1.67z"/><path fill="#510000" d="M40.65 19.62l-3.38 5.55 35.23-5.93 2.18-6.79-36.31 6.11 2.28 1.06z"/><path fill="#585858" d="M36.88 17.97L34 15.22l5.64-2.59-26.08-4.08-8.97-1.4-3.83-.6L0 18.34l.41-6.35 36.47 5.98z"/><path fill="#510000" d="M38.69 19.7l-1.81-1.73L.41 11.99 0 18.34l33.7 5.53 4.99-4.17z"/><path fill="#777" d="M18.09 9.26l.43-2.58-2.31-.38-.52-5.57L11.25 0l-.75 4.61-5.35-.88-.56 3.42 8.97 1.4 4.53.71z"/></svg>