<svg xmlns="http://www.w3.org/2000/svg" width="71.61" height="30.12"><path fill="#3f3f3f" stroke="#3f3f3f" stroke-miterlimit="10" stroke-width=".5" d="M68.94 3.59l-4.14 2.2"/><path fill="#585858" d="M30.02 17.54l6.95 3.2 31.89-5.45 2.75-8.85-4.91 1.03-1.13-1.84-1.2-1.96-5.63 1.14-.08 4.33-1.49.31-6.13 1.28-.31.06L49 6.49l-8.16 1.4L37.03 0 31.7.91 30.15 11.5l-.1.01 2.94 2.65-2.97 3.38z"/><path fill="#510000" d="M36.97 20.74l1.88.87-4.67 4.43L37.65 29l28.47-4.87 2.74-8.84-31.89 5.45z"/><path fill="#3f3f3f" stroke="#3f3f3f" stroke-miterlimit="10" stroke-width=".5" d="M4.33 6.52l4.16 2.2"/><path fill="#585858" d="M27.95 16.68l4-2.08-1.78-3.53-8.8-1.88-3.39 3.41-3.26-.54-.25-4.36-5.68-.91-1.13 2.02-1.06 1.9-4.95-.82-.68 5.73 32.31 6.56-5.33-5.5z"/><path fill="#510000" d="M34.72 23.66l-1.44-1.48L.97 15.62 0 23.84l30.93 6.28-2.17-4.01 5.96-2.45z"/></svg>