<svg xmlns="http://www.w3.org/2000/svg" width="50.3" height="21.6"><path fill="#585858" d="M16.51 14.78l6.05-3.49-1.38-4.18-9.47-2.58-3.35 3.75L.88 6.24 0 16.11l.51-5.7 16 4.37z"/><path fill="#510000" d="M16.51 14.78l-16-4.37-.51 5.7 20.13 5.48 1.84-1.48-5.46-5.33z"/><path fill="#585858" d="M20.72 16.19l27.59-7.35 1.99-7.22L37.53 5.8l-1.12 1.94-1.55.41L29.52 0 23.8 1.52l.1 4.89-3 .8 3.3 2.92-3.48 6.06z"/><path fill="#510000" d="M20.72 16.19l7.4 1.86-.85 2.21 19.3-5.14 1.74-6.28-27.59 7.35z"/></svg>