<svg xmlns="http://www.w3.org/2000/svg" width="57.62" height="26.43"><path fill="#585858" stroke="#190e0e" stroke-miterlimit="10" stroke-width=".75" d="M51.41 6.52l-6.27 3.22"/><path fill="#585858" d="M33.74 21.37l20.94-6.11 2.94-9.16-9.66 4.38-.07-.24-1.98-2.63-7.3 2.65-.01 4.02-3.98 1.29 2.61 2.47-3.49 3.33z"/><path fill="#510000" d="M33.74 21.37l-2.28 2.17 2.24 1.87 1.24 1.02 17.89-5.22 1.85-5.95-20.94 6.11z"/><path fill="#585858" d="M31.36 20.45l4.56-1.59-1.35-3.32-5.03-.58-.67-3.85-1.48-.21-.72-4.91-2.56-.37.11-5.45L23.07 0l-2.05 7.2-2.39-.35-2.66 3.83-9.49-1.37-.37 2.57-1.15-.16L0 11.07l.33 8.8-.15-3.92 31.18 4.5z"/><path fill="#510000" d="M28.39 21.48l2.97-1.03-31.18-4.5.15 3.92.06 1.36 29.96 4.32-.7-1.44-1.26-2.63z"/></svg>