<svg xmlns="http://www.w3.org/2000/svg" width="1765" height="111.66"><defs><linearGradient id="a" x1="882.5" y1="111.66" x2="882.5" gradientUnits="userSpaceOnUse"><stop offset="0" stop-color="#5087a5"/><stop offset=".08" stop-color="#6c9bb2"/><stop offset=".22" stop-color="#92b7c5"/><stop offset=".36" stop-color="#b3ced5"/><stop offset=".5" stop-color="#cbdfe1"/><stop offset=".65" stop-color="#ddece9"/><stop offset=".81" stop-color="#e8f4ee"/><stop offset="1" stop-color="#ebf6f0"/></linearGradient></defs><path d="M1749 57.66a23 23 0 0 0-3.42-5.43 24.65 24.65 0 0 0-35.36-10.07 36.84 36.84 0 0 0-54.76-.11 33.13 33.13 0 0 0-49.27-2.23 28.33 28.33 0 0 0-33.57-7.23 36.49 36.49 0 0 0-72.49-.56 21.46 21.46 0 0 0-30.75 18.23A18.42 18.42 0 0 0 1453 53.7a29 29 0 0 0-33.78-6.92 42 42 0 0 0-76.22-8.55 29.12 29.12 0 0 0-36.34-3.55A33.14 33.14 0 0 0 1254 18.34a37.25 37.25 0 0 0-69.34 18.91v1.38a28.53 28.53 0 0 0-18.59 19.15c-.38 0-.76-.1-1.14-.12a23 23 0 0 0-3.42-5.43 24.65 24.65 0 0 0-35.36-10.07 36.84 36.84 0 0 0-54.76-.11 33.13 33.13 0 0 0-49.27-2.23 28.33 28.33 0 0 0-33.57-7.23 36.49 36.49 0 0 0-72.41-.59 21.46 21.46 0 0 0-30.75 18.23A18.42 18.42 0 0 0 869 53.7a29 29 0 0 0-33.78-6.92A42 42 0 0 0 759 38.23a29.12 29.12 0 0 0-36.34-3.55A33.14 33.14 0 0 0 670 18.34a37.25 37.25 0 0 0-69.34 18.91v1.38a28.54 28.54 0 0 0-17.76 16.91 22.87 22.87 0 0 0-2.31-3.31 24.65 24.65 0 0 0-35.36-10.07 36.84 36.84 0 0 0-54.76-.11 33.13 33.13 0 0 0-49.27-2.23 28.33 28.33 0 0 0-33.57-7.23 36.49 36.49 0 0 0-72.49-.59 21.46 21.46 0 0 0-30.75 18.23A18.42 18.42 0 0 0 288 53.7a29 29 0 0 0-33.78-6.92A42 42 0 0 0 178 38.23a29.12 29.12 0 0 0-36.34-3.55A33.14 33.14 0 0 0 89 18.34a37.25 37.25 0 0 0-69.29 18.91v1.38a28.47 28.47 0 1 0 31.63 44 13.1 13.1 0 0 0 9.71 1.76 24.66 24.66 0 0 0 46.95 4.5 11.47 11.47 0 0 0 7.88.83 16.75 16.75 0 0 0 7.84 3.28 15.38 15.38 0 0 0 24.49 5.27A18.41 18.41 0 0 0 179.33 90a10.83 10.83 0 0 0 4.77-1.33 41.94 41.94 0 0 0 45.55 9.78 10.75 10.75 0 0 0 18-2.85 29.11 29.11 0 0 0 38.16-.58 12.08 12.08 0 0 0 15.12-.37 20.67 20.67 0 0 0 35.47 5.78 21 21 0 0 0 24.46-7.38 23 23 0 0 0 34.29 6.1 51 51 0 0 0 21.41 4.45c9.76 0 18.6-2.45 25.08-6.42a20 20 0 0 0 35.57 6 17.84 17.84 0 0 0 27.45-2 36.84 36.84 0 0 0 35.71-5.28c4.12 3.1 10.66 5.11 18 5.11 10.73 0 19.69-4.23 22-9.89a16.56 16.56 0 0 0 12.09-2.58 28.44 28.44 0 0 0 39.91-5.95 13.1 13.1 0 0 0 9.71 1.76A24.66 24.66 0 0 0 689 88.89a11.47 11.47 0 0 0 7.88.83 16.75 16.75 0 0 0 7.84 3.28 15.38 15.38 0 0 0 24.49 5.27A18.41 18.41 0 0 0 760.33 90a10.83 10.83 0 0 0 4.77-1.33 41.94 41.94 0 0 0 45.55 9.78 10.75 10.75 0 0 0 18-2.85 29.11 29.11 0 0 0 38.16-.58 12.08 12.08 0 0 0 15.12-.37 20.67 20.67 0 0 0 35.47 5.78 21 21 0 0 0 24.46-7.38 23 23 0 0 0 34.29 6.1 51 51 0 0 0 21.41 4.45c9.76 0 18.6-2.45 25.08-6.42a20 20 0 0 0 35.57 6 17.84 17.84 0 0 0 27.45-2 36.84 36.84 0 0 0 35.71-5.28c4.12 3.1 10.66 5.11 18 5.11 10.73 0 19.69-4.23 22-9.89a16.59 16.59 0 0 0 13.63-3.73 28.42 28.42 0 0 0 41.36-4.78 13.1 13.1 0 0 0 9.71 1.76 24.66 24.66 0 0 0 46.93 4.52 11.47 11.47 0 0 0 7.88.83 16.75 16.75 0 0 0 7.84 3.32 15.38 15.38 0 0 0 24.5 5.27 18.41 18.41 0 0 0 31.11-8.31 10.83 10.83 0 0 0 4.77-1.33 41.94 41.94 0 0 0 45.55 9.78 10.75 10.75 0 0 0 18-2.85 29.11 29.11 0 0 0 38.16-.58 12.08 12.08 0 0 0 15.12-.37 20.67 20.67 0 0 0 35.47 5.78 21 21 0 0 0 24.46-7.38 23 23 0 0 0 34.29 6.1 51 51 0 0 0 21.41 4.45c9.76 0 18.6-2.45 25.08-6.42a20 20 0 0 0 35.57 6 17.84 17.84 0 0 0 27.45-2 36.84 36.84 0 0 0 35.71-5.28c4.12 3.1 10.66 5.11 18 5.11 10.73 0 19.69-4.23 22-9.89a16.87 16.87 0 1 0 3.63-33.46z" fill="url(#a)"/></svg>