<svg xmlns="http://www.w3.org/2000/svg" width="40.08" height="51.55"><path d="M26.92 13.32V3a3 3 0 0 0-3-3h-7.86a3 3 0 0 0-3 3v10.36a19.67 19.67 0 0 0 7 38.19 19.67 19.67 0 0 0 6.86-38.23z"/><path d="M24.32 31.16c2.12-.69 3.69-1.71 3.51-2.28s-2.06-.47-4.18.22a13 13 0 0 0-2.07.86 2.13 2.13 0 0 0-.55-.39 13 13 0 0 0 .18-2.22c0-2.23-.48-4-1.08-4s-1.07 1.78-1.07 4.01a13.06 13.06 0 0 0 .17 2.15 2.13 2.13 0 0 0-.61.41 13.07 13.07 0 0 0-2-.82c-2.12-.69-4-.79-4.18-.22s1.39 1.59 3.51 2.28a13.17 13.17 0 0 0 2 .49 2.1 2.1 0 0 0 .25.82A13.17 13.17 0 0 0 16.86 34c-1.31 1.81-2 3.55-1.5 3.91s1.94-.83 3.25-2.63a13.16 13.16 0 0 0 1.09-1.76 1.9 1.9 0 0 0 .84 0 13.15 13.15 0 0 0 1.09 1.77c1.31 1.81 2.77 3 3.25 2.63s-.19-2.1-1.5-3.91a13.05 13.05 0 0 0-1.41-1.65 2.11 2.11 0 0 0 .19-.71 13 13 0 0 0 2.16-.49z" fill="#232323"/></svg>